<svg xmlns="http://www.w3.org/2000/svg" xmlns:xlink="http://www.w3.org/1999/xlink" width="500" zoomAndPan="magnify" viewBox="0 0 375 374.999991" height="500" preserveAspectRatio="xMidYMid meet" version="1.0"><defs><clipPath id="b702d12bce"><path d="M 27.644531 27.644531 L 352.394531 27.644531 L 352.394531 352.394531 L 27.644531 352.394531 Z M 27.644531 27.644531 " clip-rule="nonzero"/></clipPath></defs><g clip-path="url(#b702d12bce)"><path fill="#1f526b" d="M 304.808594 75.199219 C 274.140625 44.535156 233.371094 27.644531 190.003906 27.644531 C 146.636719 27.644531 105.867188 44.535156 75.199219 75.199219 C 44.535156 105.867188 27.644531 146.636719 27.644531 190.003906 C 27.644531 233.371094 44.535156 274.140625 75.199219 304.808594 C 105.867188 335.472656 146.636719 352.359375 190.003906 352.359375 C 233.371094 352.359375 274.140625 335.472656 304.808594 304.808594 C 335.476562 274.144531 352.359375 233.371094 352.359375 190.003906 C 352.359375 146.636719 335.472656 105.867188 304.808594 75.199219 Z M 287.121094 297.101562 L 287.121094 293.921875 C 287.121094 265.710938 264.25 242.84375 236.039062 242.84375 L 147.503906 242.84375 C 119.296875 242.84375 96.425781 265.714844 96.425781 293.921875 L 96.425781 300.207031 C 65.203125 273.652344 45.355469 234.105469 45.355469 190.003906 C 45.355469 110.242188 110.242188 45.355469 190.003906 45.355469 C 269.761719 45.355469 334.648438 110.242188 334.648438 190.003906 C 334.648438 232.417969 316.296875 270.625 287.121094 297.101562 Z M 287.121094 297.101562 " fill-opacity="1" fill-rule="nonzero"/></g><path fill="#1f526b" d="M 248.746094 170.222656 C 248.746094 172.15625 248.648438 174.085938 248.460938 176.011719 C 248.269531 177.933594 247.988281 179.84375 247.609375 181.742188 C 247.234375 183.636719 246.765625 185.511719 246.203125 187.363281 C 245.640625 189.210938 244.992188 191.03125 244.25 192.816406 C 243.511719 194.601562 242.683594 196.347656 241.773438 198.054688 C 240.863281 199.757812 239.871094 201.414062 238.796875 203.023438 C 237.722656 204.632812 236.570312 206.183594 235.34375 207.675781 C 234.117188 209.171875 232.820312 210.601562 231.453125 211.96875 C 230.085938 213.335938 228.65625 214.632812 227.160156 215.859375 C 225.664062 217.085938 224.113281 218.238281 222.507812 219.3125 C 220.898438 220.386719 219.242188 221.378906 217.535156 222.289062 C 215.832031 223.203125 214.085938 224.027344 212.300781 224.769531 C 210.511719 225.507812 208.695312 226.160156 206.84375 226.71875 C 204.996094 227.28125 203.121094 227.75 201.222656 228.128906 C 199.328125 228.503906 197.417969 228.789062 195.492188 228.976562 C 193.570312 229.167969 191.640625 229.261719 189.707031 229.261719 C 187.773438 229.261719 185.84375 229.167969 183.921875 228.976562 C 181.996094 228.789062 180.085938 228.503906 178.1875 228.128906 C 176.292969 227.75 174.417969 227.28125 172.570312 226.71875 C 170.71875 226.160156 168.898438 225.507812 167.113281 224.769531 C 165.328125 224.027344 163.582031 223.203125 161.875 222.289062 C 160.171875 221.378906 158.515625 220.386719 156.90625 219.3125 C 155.300781 218.238281 153.75 217.085938 152.253906 215.859375 C 150.757812 214.632812 149.328125 213.335938 147.960938 211.96875 C 146.59375 210.601562 145.296875 209.171875 144.070312 207.675781 C 142.84375 206.183594 141.691406 204.632812 140.617188 203.023438 C 139.542969 201.414062 138.550781 199.757812 137.640625 198.054688 C 136.726562 196.347656 135.902344 194.601562 135.164062 192.816406 C 134.421875 191.03125 133.773438 189.210938 133.210938 187.363281 C 132.648438 185.511719 132.179688 183.636719 131.804688 181.742188 C 131.425781 179.84375 131.140625 177.933594 130.953125 176.011719 C 130.761719 174.085938 130.667969 172.15625 130.667969 170.222656 C 130.667969 168.289062 130.761719 166.363281 130.953125 164.4375 C 131.140625 162.511719 131.425781 160.601562 131.804688 158.707031 C 132.179688 156.808594 132.648438 154.9375 133.210938 153.085938 C 133.773438 151.234375 134.421875 149.417969 135.164062 147.632812 C 135.902344 145.84375 136.726562 144.097656 137.640625 142.394531 C 138.550781 140.6875 139.542969 139.03125 140.617188 137.425781 C 141.691406 135.816406 142.84375 134.265625 144.070312 132.769531 C 145.296875 131.277344 146.59375 129.84375 147.960938 128.476562 C 149.328125 127.109375 150.757812 125.8125 152.253906 124.585938 C 153.75 123.359375 155.300781 122.210938 156.90625 121.136719 C 158.515625 120.0625 160.171875 119.070312 161.875 118.15625 C 163.582031 117.246094 165.328125 116.417969 167.113281 115.679688 C 168.898438 114.941406 170.71875 114.289062 172.570312 113.726562 C 174.417969 113.167969 176.292969 112.699219 178.1875 112.320312 C 180.085938 111.941406 181.996094 111.660156 183.921875 111.46875 C 185.84375 111.28125 187.773438 111.1875 189.707031 111.1875 C 191.640625 111.1875 193.570312 111.28125 195.492188 111.46875 C 197.417969 111.660156 199.328125 111.941406 201.222656 112.320312 C 203.121094 112.699219 204.996094 113.167969 206.84375 113.726562 C 208.695312 114.289062 210.511719 114.941406 212.300781 115.679688 C 214.085938 116.417969 215.832031 117.246094 217.535156 118.15625 C 219.242188 119.070312 220.898438 120.0625 222.507812 121.136719 C 224.113281 122.210938 225.664062 123.359375 227.160156 124.585938 C 228.65625 125.8125 230.085938 127.109375 231.453125 128.476562 C 232.820312 129.84375 234.117188 131.277344 235.34375 132.769531 C 236.570312 134.265625 237.722656 135.816406 238.796875 137.425781 C 239.871094 139.03125 240.863281 140.6875 241.773438 142.394531 C 242.683594 144.097656 243.511719 145.84375 244.25 147.632812 C 244.992188 149.417969 245.640625 151.234375 246.203125 153.085938 C 246.765625 154.9375 247.234375 156.808594 247.609375 158.707031 C 247.988281 160.601562 248.269531 162.511719 248.460938 164.4375 C 248.648438 166.363281 248.746094 168.289062 248.746094 170.222656 Z M 248.746094 170.222656 " fill-opacity="1" fill-rule="nonzero"/></svg>